<?xml version="1.0" encoding="UTF-8"?>
<svg width="1200pt" height="1200pt" version="1.1" viewBox="0 0 1200 1200" xmlns="http://www.w3.org/2000/svg">
 <path d="m264.82 163.57c13.285-12.852 35.258-42.758 58.609-57.672 11.723-7.5 24.215-11.484 34.367-13.355 10.055-1.8594 17.363-3.3125 18.012-6.9727 0.63672-3.2891-5.9297-7.5-17.93-10.066-11.93-2.5938-30.059-1.1289-47.016 6.6836-17.051 7.6797-31.598 20.387-42.973 31.57-11.461 11.305-20.438 21.312-26.398 27.348-11.746 12.254-23.941 23.242-36.73 30.84-5.7461 3.875-13.645 6.6602-21.301 9.7188-8.0625 3.1211-16.094 6.2266-24.098 9.3125-16.188 6.4336-32.605 13.355-48.422 22.812-8.0039 4.6914-15.422 10.309-22.703 16.512-7.3672 6.7695-14.051 14.578-18.805 23.219-10.043 17.016-14.473 36.637-13.117 56.594 1.4023 19.68 11.941 41.328 30.215 52.598 4.5234 2.5547 9.0234 5.4609 13.824 6.793 4.7539 1.7891 9.5156 3.2383 14.258 3.7812l7.6211 1.2344c3.6133 0.14453 6.6719-0.26562 9.2891-0.51562 5.3398-0.91016 10.297-2.3164 14.652-4.0078 17.242-6.9102 29.641-15.504 41.426-18.996 5.7734-1.8008 10.883-2.3633 15.66-1.6914 2.543 0.69531-0.61328-0.60156 1.6914 0.76953 1.6797 1.7656 3.4805 3.5039 5.4961 6.3359 4.1172 5.1953 8.0273 12.023 14.93 19.234 1.4297 1.7656 3.625 3.5156 5.7344 5.2188 2.0898 1.7031 4.1523 3.3828 6.9727 4.6328 5.3164 3.0469 10.715 4.2617 16.117 5.1367 20.438 1.7031 35.195-4.2617 46.559-4.5703 3.2266-0.37109 4.3672 0.058594 7.0547 0.22656 2.7617 0.80469 5.6875 1.1172 8.3164 2.2578 5.5781 1.6094 10.332 4.5117 14.988 7.5586 18.434 12.926 28.273 38.375 40.547 63.805 3.0859 6.5391 6.7305 12.938 10.414 19.246 1.9805 3.1797 3.9492 6.3477 6.2773 9.5508 2.2578 3.2539 5.207 6.8398 10.414 11.762 4.957 4.0547 10.477 7.0664 16.488 7.5859 6.0352 0.67188 12.059-1.2969 16.922-4.8477 4.8828-3.5898 8.9141-9.168 11.855-13.992 2.0156-3.4922 3.7188-6.7305 5.2305-9.8867 6.0469-12.574 10.895-24.059 16.812-34.379 2.9297-5.1367 6.0352-9.9258 9.3945-14.184 2.0039-2.6758 6.5039-6.3242 10.414-8.6758 8.125-5.1719 19.246-7.7539 31.992-11.746 6.2773-1.7773 12.887-4.8359 18.383-6.6484 5.9414-2.3047 10.895-3.6602 17.566-6.7188l9.7695-4.5352c3.0586-1.7891 5.8438-4.043 8.7461-6.0703 6.1797-4.1992 10.211-8.3281 14.988-12.457 9.7578-8.125 17.219-16.598 25.777-23.23 16.645-13.715 34.691-23.578 53.617-26.051 4.7656-0.10938 9.4922-1.0938 14.23-0.66016 4.9805 0.5625 8.8789 0.20313 14.699 1.3555 5.4492 0.86328 10.848 1.7148 16.246 2.5664 6.3008 0.22656 13.031 1.5117 19.273 0.37109 6.3711-0.9375 12.758-2.0273 17.508-3.4336 4.8359-1.2344 9.6602-2.4727 14.438-3.6836 12.012-2.2578 21.973-6.2266 30.359-8.1016 8.6641-1.9922 14.184-1.5859 22.969 0.875 8.9297 2.5781 18.539 5.8672 28.512 8.4258 10.066 2.4727 20.531 4.8359 33.059 3.8164 3.0859-0.23828 6.5508-1.1289 9.793-2.0039 3.4062-1.5703 6.8867-2.6055 9.9258-5.3281 6.6367-4.4414 10.043-11.711 12.758-19.824 1.957-7.2461-0.19141-15.047-4.7656-20.914-5.2578-6.5742-8.7461-8.6641-12.84-11.688-7.9336-5.3633-15.684-9.2148-23.375-12.793-15.359-7.0664-30.516-12.59-45.098-17.941-7.6914-2.6289-13.152-5.2812-22.414-8.1602-8.4102-2.3984-16.945-3.6719-25.176-4.0195-16.453-0.71875-31.02 1.7891-41.531-0.68359-5.293-1.1523-9.7305-3.3359-14.102-6.8516-1.2461-0.86328-2.125-1.668-2.7109-2.3398-0.92578-0.71875-1.1641-1.3203-1.5586-1.8125-0.51562-1.0938-0.85156-1.4531-0.80469-3.4453-0.085938-1.3086 1.2227-7.1523 0.58984-12.949-0.53906-5.6406-3.4453-10.766-7.7266-14.34-4.3789-3.6016-9.4805-5.6992-13.391-6.9844-3.6836-1.1641-7.3203-2.1367-10.859-2.7852-3.3125-0.9375-7.6211-1.0938-11.762-1.1875-4.2969-0.30078-7.5469 0.625-11.316 0.9375-7.0938 1.1641-13.621 2.8906-19.812 4.7773-12.324 3.7188-23.746 8.2422-33.781 10.273-10.824 2.2812-22.68 2.8672-35.398 7.1523-3.1445 1.1641-6.3594 2.4492-9.4062 4.3086l-2.2812 1.4531-1.1289 0.73047-0.53906 0.35938 0.44531-0.26562 0.34766-0.17969-1.1289 0.55078-2.2578 1.1289c-6.1797 2.7461-11.16 6.9492-15.66 10.969-8.8906 8.3047-14.891 17.375-21.086 24.109-3.0859 3.3008-6.0703 6.168-9.3008 8.0391-3.2773 2.0039-7.7539 4.5234-11.34 5.6406-7.5859 2.832-14.855 3.2148-22.285 1.4297-7.4414-1.7539-14.977-5.4961-22.598-9.2539-15.156-7.7891-31.32-14.629-47.207-17.293 0.25391 0.058594 0.52734 0.12109 0.69531 0.16797-16.992-3.8398-32.809-5.2578-47.207-6.0469-7.1875-0.53906-14.148-1.0664-20.879-1.5703-6.4453-0.63672-14.148-0.94922-20.375-0.75781-6.4688 0.085937-12.613 0.42188-18.203 0.25391-5.6055-0.16797-10.754-0.85156-13.703-2.5781-6.8516-3.6484-5.125-13.777-3.1094-22.355 5.1719-16.871 18.059-26.723 29.438-33.984 11.449-7.3203 21.203-14.207 27.289-21.66 6.3711-7.2617 9.0352-14.438 10.848-19.777 1.3906-5.543 2.3047-9.457 2.3516-12.336 0.49219-5.6875 0.40625-6.7305 0.40625-6.7305s-0.39453 0.94922-1.6797 6.3125c-0.42969 2.6875-1.75 6.3594-3.6328 11.422-0.96094 2.5195-2.6289 5.1484-4.1641 8.2695-2.125 2.7969-4.1406 6.168-7.3672 9.2031-6.0977 6.4336-15.254 12.168-27.324 18.887-11.605 6.5625-27.863 16.547-35.27 36.91-1.5469 4.9688-2.8672 10.152-3.0859 16.246-0.35938 6.1328 2.0039 14.281 8.3281 18.422 6.5625 4.3438 13.453 5.0039 19.633 5.5547 6.3125 0.42187 12.562 0.34766 18.852 0.49219 6.5508 0.10938 11.988 0.44531 19.094 1.3789 6.8164 0.75781 13.859 1.5352 21.145 2.3398 14.566 1.2734 29.473 3.2266 44.363 6.9961l0.44531 0.10938 0.25391 0.046875c13.777 2.832 27.324 8.9297 42.277 17.125 7.5703 3.9609 15.758 8.5195 25.906 11.293 10.094 2.8906 22.246 2.6055 32.723-1.1289 5.5781-1.7539 9.7578-3.9961 14.953-6.9102 5.3867-3.0234 9.7422-7.0547 13.68-11.09 7.668-8.1133 13.512-16.414 20.52-22.547 3.5039-2.9648 7.0078-5.832 10.98-7.3906l4.2461-2.125 3.6836-2.1836c1.668-1.0312 3.7578-1.7656 5.8555-2.5312 8.7461-2.8789 20.219-3.5156 32.617-5.7109 13.273-2.4961 24.562-6.9375 36.121-10.117 11.617-3.2383 22.586-5.7461 32.172-3.457 2.8555 0.5625 5.543 1.3438 8.1367 2.207 2.3516 0.75781 3.4336 1.3789 4.1641 1.8945 0.73047 0.61328 1.2461 1.5117 1.2461 2.4844 0.070313 0.82812-0.30078 1.6211-0.75781 7.0938-0.42188 4.8477 0.80469 11.375 3.6836 16.297 1.4766 2.3984 3.0977 4.7656 4.8125 6.3359 1.7539 1.8945 3.4688 3.4453 5.0625 4.6211 6.3359 5.3516 14.797 9.8164 23.449 11.746 17.605 3.8164 32.461 0.80469 45.672 1.9062 6.6602 0.38281 13.055 1.4766 19.246 3.3008 5.2695 1.5977 13.766 5.4258 20.746 7.9219 14.473 5.5312 29.051 11.09 42.996 17.711 6.9102 3.3008 13.766 6.9102 19.465 10.883 6.7578 5.1484 6.3008 5.1133 6.0469 6.9258-0.23828 0.40625-0.13281 0.75781-0.73047 1.2227-0.25391 0.23828-0.46875 0.63672-0.63672 1.0078-0.3125 0.22656-0.67188 0.34766-0.92578 0.61328-0.28906 0.68359-1.6328 0.66016-2.3398 1.2617-1.2852 0.16797-2.3984 0.61328-4.0195 0.69531-6.3711 0.50391-14.965-1.043-23.578-3.3828-8.7617-2.3398-17.711-5.4961-27.805-8.543-10.141-3.4805-25.355-4.6445-36.504-1.6094-11.449 2.5938-20.773 6.168-29.305 7.5859-5.3164 1.2852-10.68 2.5664-16.066 3.875-5.3984 1.5117-9.4805 1.9453-13.645 2.6523-2.125 0.61328-4.2227 0.25391-6.3242 0.070313l-6.4219-0.45703c-5.2578-0.875-10.559-1.7656-15.875-2.6641-4.9219-1.0547-12.059-1.2227-18.047-1.7891-6.2656-0.50391-12.625 0.49219-18.973 0.76953-25.668 3.1797-49.141 16.246-68.352 31.934-9.8867 7.6445-18.238 16.871-26.914 23.879-4.2461 3.6484-8.7461 7.9688-12.66 10.414-2.0508 1.3789-3.9375 3.0586-6.0977 4.2617l-6.793 3c-4.4023 2.0898-11.242 4.1641-16.777 6.2656-6.1914 2.0508-10.801 4.2734-16.512 5.8672-10.859 3.5039-24.793 6.2266-38.461 14.449-3.2891 2.1484-6.7578 4.0938-9.6602 6.8281l-4.5977 3.9844c-0.89844 0.69531-1.8125 1.6797-2.6875 2.832l-1.7539 2.1602c-4.6094 5.7852-8.5312 11.832-12.047 17.941-7.0312 12.156-12.422 24.816-17.902 36-1.332 2.7734-2.7969 5.4492-4.043 7.6094-0.52734 0.82812-0.43359 0.67188-0.60156 0.83984-0.25391 0.26562-0.63672 0.10938-0.81641-0.13281 0.34766 0.39453-1.1172-1.2852-2.7227-3.6016-1.6562-2.2812-3.2539-4.8945-4.8594-7.5-3.1328-5.4727-6.2773-10.98-9.0234-16.906-5.7344-11.832-11.258-25.02-18.66-38.281-7.3555-13.223-17.258-27-31.488-37.367-7.1758-4.8945-14.977-9.3477-23.27-11.879-4.0547-1.6328-8.3633-2.3047-12.59-3.4062-4.5-0.64844-10.621-1.2461-14.652-0.74219-9.2031 0.49219-16.465 2.2578-23.473 3.3359-6.9375 1.3086-12.828 1.668-17.363 1.2852-4.2617-0.60156-5.8672-1.8477-9.793-5.5195-3.6133-3.5742-7.4141-9.8047-12.562-16.559-2.375-3.3359-5.7852-7.1523-9.5039-10.715-1.8828-1.5703-5.2422-3.9961-8.3164-6.3242-3.3594-1.1875-8.207-1.8594-10.141-2.3047-10.355-1.5352-20.797-0.035157-29.676 2.7617-17.746 5.6523-31.32 15.098-43.309 19.535-2.9531 1.1523-5.5938 1.7891-8.0039 2.2578l-1.668 0.10938c-0.5625 0.011719-0.28906 0.13281-0.80469 0.023438l-4.0781-0.73047c-3.2031-0.27734-5.9648-1.2617-8.6641-2.2812-2.9766-0.67188-5.0508-2.4375-7.5469-3.6602-9.0977-5.7344-14.461-16.031-15.602-28.453-0.80469-12.359 2.0391-26.258 8.9766-37.633 3.1914-5.8906 7.5469-10.754 12.383-15.289 5.4375-4.5586 11.328-9.1445 17.879-12.938 13.066-7.8008 27.984-14.207 43.57-20.363 7.957-3.0703 15.949-6.1562 23.977-9.2539 8.3281-3.3594 16.906-6.2539 25.824-11.891 17.148-10.176 31.047-23.133 43.766-36.336z" fill="#fff"/>
 <path d="m963.59 648.9c3.4805-0.74219 10.812-2.9141 16.391-7.043 5.5938-4.3906 9.2148-10.008 6.3945-16.523-2.8086-6.5156-8.8789-8.6875-14.496-9.0703-5.7617-0.60156-11.664 0.21484-14.508 0.83984-42.035 7.3906-84.996 0.23828-124.04 7.2344-19.477 3.1445-37.992 9.7695-52.957 19.117-14.902 9.0977-27.59 20.316-36.539 32.281-18.145 23.809-26.664 47.711-29.965 68.148-3.1562 20.543-1.7148 37.777 2.2578 50.891 3.8047 13.164 9.1797 22.297 13.859 28.586 5.0039 6.168 8.7109 9.9961 11.953 12.059 6.0117 4.4414 7.1992 4.2461 7.1992 4.2461s0.15625-1.3438-3.2773-7.4531c-1.9219-2.8672-3.9961-7.4414-6.8516-13.789-2.6641-6.4336-5.4492-15.035-6.9492-26.508-1.5234-11.449-0.92578-25.992 3.4062-43.055 4.2852-17.004 13.391-36.758 29.184-55.43 15.91-18.301 40.273-34.043 73.176-38.426 16.559-2.4102 35.242-2.4492 56.039-2.1719 20.766 0.19531 44.082 0.74609 69.727-3.9336z" fill="#fff"/>
 <path d="m787.59 829.21c-4.8359 0.55078-19.02 0.50391-21.793 14.641-2.7461 13.836 15.84 18.395 21.48 17.746 20.773 0.19141 39.781-2.7344 57.266-7.9219 8.8086-2.125 17.051-5.9023 25.055-9.0859 3.9609-1.8359 7.7383-4.1641 11.496-6.2031l5.543-3.1445 5.1133-3.9102c3.3359-2.6758 6.6836-5.1367 9.7695-7.9336 2.9023-3.168 5.7461-6.2656 8.5547-9.3242 4.7891-6.6836 9.168-13.5 11.746-20.34 5.832-13.586 8.1836-26.27 9.8047-37.512 3.1211-22.598 3.793-40.5 6-55.02 2.2305-14.375 4.7031-25.777 8.6875-33.984 3.625-8.4258 7.5859-14.426 11.172-18.672 3.168-4.7383 6.3477-7.1523 8.2188-9.3477 3.8867-4.2461 4.043-5.543 4.043-5.543s-0.89844-0.625-6.625 1.1875c-2.7734 1.0312-7.2461 2.0508-12.312 5.9297-5.4492 3.3594-11.988 9.0352-18.406 18.145-6.7578 9.0117-11.941 21.77-16.355 37.379-4.3789 15.613-6.9375 34.32-11.23 54.719-2.1484 10.188-4.957 20.723-9.6484 30.324-4.6562 9.8398-10.754 17.879-21.434 24.758l-3.6953 2.7969-4.3555 2.2422c-2.9648 1.4766-5.7969 3.1797-8.9414 4.6211-6.6484 2.3516-13.188 5.4102-20.746 7.0547-14.629 4.1914-31.273 6.5898-48.406 6.3984z" fill="#fff"/>
 <path d="m711.24 913.93c0.097657 2.4727 2.2578 7.6445 6.1914 11.219 3.8047 3.625 8.8086 5.2812 15.07 1.9453 6.2656-3.3359 8.9531-7.8594 10.055-11.387 0.98437-3.5039 0.38281-6.5273 0.40625-8.3164-4.3555-23.578 3.2539-48.742 11.219-68.734 8.0625-20.438 17.93-37.234 26.699-51.359 17.965-28.188 33.227-45.434 43.945-56.566 10.754-11.258 17.281-16.535 20.676-19.738 3.3828-3.3008 3.5508-4.5 3.5508-4.5s-0.74219-0.75781-5.543-0.16797c-4.8125 0.50391-14.074 2.5547-28.547 11.543-14.461 8.9141-34.141 24.684-56.316 53.543-10.922 14.52-22.812 32.125-32.902 54.949-9.5234 22.684-20.695 50.691-14.504 87.57z" fill="#fff"/>
 <path d="m702.39 773.29c4.2969-0.76953 16.57-2.8086 17.617-16.848 0.39453-7.0938-3.3828-11.195-8.2695-13.488-4.7383-2.0391-10.273-2.2305-12.707-1.8711-18.312 1.9805-33.551 5.8555-46.895 7.1523-13.355 1.5-24.395 0.60156-33.828-3.1211-9.4062-3.4336-18.203-10.164-23.688-15.926-5.7109-5.8555-7.9805-13.273-9.5391-21.203-2.7344-16.031-0.91016-33.145-2.2695-47.711-1.1406-14.676-4.5234-27.516-10.332-36.266-2.4375-4.5234-5.9766-7.6797-8.3984-10.715-2.7734-2.7617-5.7109-4.5586-7.9805-6.3125-4.4766-3.625-8.6523-4.332-11.062-5.4609-5.1367-1.7539-6.0703-1.1758-6.0703-1.1758s-0.035156 1.2109 3.1094 5.2812c1.3672 2.2188 4.3203 4.3203 6.8633 8.6758 1.3086 2.1016 3.0977 4.2461 4.6797 6.9609 1.1406 2.9766 3.1445 5.8203 4.1992 9.5742 2.6992 7.2461 3.5742 16.777 2.8672 29.398-0.34766 12.816-4.3438 28.309-2.7344 50.93 0.98438 10.992 4.2734 24.898 13.668 36.289 9.3359 11.16 20.148 19.957 34.934 26.328 14.734 6.4688 32.293 7.9805 48.539 6.3242 16.352-1.4062 32.035-5.2578 47.297-6.8164z" fill="#fff"/>
 <path d="m550.51 588.16c-4.4883 0.57422-18.395 4.5-15.73 18.445 2.6875 13.969 14.965 14.34 18.742 13.801 56.195-4.6797 97.5 13.57 118.64 35.074 10.801 10.738 18.023 21.828 22.152 32.148 1.1406 2.5664 2.2188 5.0039 3.2539 7.332 0.70703 2.4727 1.3789 4.8125 2.0273 7.043 1.2227 4.5 2.832 8.5078 3.2148 12.324 3.168 15.086 3.4688 23.773 4.7539 28.414 1.1055 4.6797 2.0508 5.375 2.0508 5.375s1.043-0.30078 2.9648-4.6797c1.6914-4.4297 5.6055-12.805 6.3711-30.086 0.61328-4.3203 0-9.1445-0.42188-14.594-0.25391-2.7461-0.53906-5.6289-0.81641-8.6523-0.75781-2.9766-1.5234-6.1094-2.3398-9.3828-3.0352-13.223-10.309-28.523-22.922-43.57-24.934-30.512-76.402-54.754-141.95-48.992z" fill="#fff"/>
 <path d="m688.67 754.89c0.070312 0.81641 2.5547 3.3242 16.766 3.625 14.23 0.30078 15.625-5.8438 15.348-7.7656-0.38281-6.9102-3.0117-12.73-5.3398-18.191-2.375-5.4102-5.9414-9.3008-8.7344-13.379-3.2266-3.4805-6.457-6.3477-9.4219-9.0703-3.0859-2.4258-6.0977-4.2852-8.832-6.0977-11.172-6.6719-19.43-8.7344-25.223-9.7578-11.652-1.5586-13.98 1.8242-13.98 1.8242s-1.1523 3.9492 6.1211 12.336c3.4453 4.3086 9.0977 9.6953 16.199 17.074 7.1016 7.3125 15.742 16.961 17.098 29.402z" fill="#fff"/>
 <path d="m639.77 874.93c-3.9961-9.9844-12.277-30.73-19.645-49.141-6.7578-17.762-10.727-33.91-18.121-34.199-6.8164-0.35938-11.016 18.898-7.9219 40.754 3.3242 21.504 11.508 43.789 15.395 54.07 6.5625 17.82 13.297 34.465 17.125 51.562l3.1797 12.84 1.5469 6.4453 0.9375 5.8438c0.91016 4.0664 0.64844 7.2461 0.96094 10.727-0.45703 3.0586-0.38281 6.0234-1.6094 8.9297-0.51563 2.8203-2.5938 6.168-3.9258 9.3242-2.1133 3.4453-3.9492 6.8281-6.2539 10.332l-7.0664 10.789c-2.6758 4.0664-5.3867 8.0039-7.6211 12.719-4.9336 8.7852-8.1602 19.117-9.7578 29.953-0.49219 5.4727-0.42188 11.305 0.21484 16.871l2.0156 8.3984c0.58984 2.8438 1.5352 5.4961 2.9766 7.9453 2.6523 4.957 4.9805 10.223 8.8555 14.039 3.875 4.043 6.3477 8.3164 12.301 11.676 10.512 6.5742 18.457 8.6406 27.348 11.398 8.6992 2.3047 17.293 4.1523 26.34 5.0273 4.5234 0.44531 9.0117 0.88672 14.102 0.57422 4.5703 0.20312 10.512-1.0195 16.117-2.4844 9.625-2.9023 19.105-9.2773 25.586-15.707 6.6602-6.4062 11.578-12.984 15.77-17.195 4.4297-4.3789 6.5625-5.3164 9.1445-5.5195 2.832-0.30078 8.0508 1.3438 13.246 3.7422l0.89844 0.42187 0.58984 0.23828c3.5508 1.4141 6.8984 4.0195 11.965 9.1094 4.9062 4.8828 12.145 12.012 22.008 16.008 2.5312 0.88672 5.0898 1.7031 7.6562 2.4375 2.5078 0.49219 4.9453 0.38281 7.4297 0.52734l7.3906 0.058594c2.207-0.15625 3.9727-0.53906 5.9766-0.80469 8.125-1.043 14.723-2.7344 21.422-4.0664 26.723-4.957 52.559-9.7305 77.508-14.352 13.355-2.6055 23.219-4.2617 35.543-4.7383 12.121-0.71875 24.66-1.0781 37.789-3.3828 3.2266-0.45703 6.5273-1.0938 10.02-2.207 3.4805-1.0938 6.6367-1.5703 10.523-3.7188 7.2109-3.1211 14.965-8.7852 21.254-17.449 2.7734-4.0781 4.1992-9.0352 3.4688-13.871-0.57422-4.668-3.1094-8.9648-6.457-13.176-2.4375-3.3359-2.0508-3.0117-2.4258-4.1055-0.27734-0.82812-0.27734-2.1133-0.26562-3.6016l0.058594-1.2617c0.011719-5.4375 2.7969-13.633 5.8438-21.445 3.0586-7.8945 6.1445-16.008 7.9805-23.473-0.15625 0.48047-0.28906 0.96094-0.38281 1.2734 6.4688-18.637 6.9844-37.465 6.9609-53.676-0.097657-16.152-0.12109-31.43 4.4883-39.961 2.4258-3.9375 3.5742-4.9688 8.1836-5.8086 4.6562-0.68359 11.484 0.30078 19.008 0.99609 7.4648 0.55078 16.871 1.3906 26.953-3.3008 2.3633-1.2227 4.6211-2.8672 6.7812-4.4414 1.9805-1.7031 3.4805-3.6484 5.4609-6.1328 1.9688-2.3047 2.5195-5.2188 3.8281-7.7656 0.57422-2.7734 0.78125-5.7109 1.0547-8.4609-0.57422-10.43-3.9492-16.68-6.8398-23.328-3.0352-6.457-6.457-12.035-9.7578-17.566-6.6836-10.859-13.465-20.762-18.973-30.18-2.5938-4.5703-5.1016-9.3594-5.8203-12.527-0.78125-4.9805-1.9336-9.793-2.0898-14.797-0.875-9.8398-0.32422-19.824 0.16797-29.664 1.1406-19.621 2.4258-39.227-2.1016-57.301-3.9961-17.867-14.555-34.43-29.293-42.121-3.7305-1.5352-7.3555-3.0234-10.906-4.5-3.625-0.83984-7.1875-1.4531-10.633-2.1133-6.8516-1.043-13.309-1.7383-20.594-0.13281-3.5742 0.74219-7.2461 2.5195-10.129 4.8711-2.7969 2.5781-4.8125 5.5781-6.0703 8.375-2.5312 5.5664-3.6133 10.367-5.0508 14.629-2.7344 8.4961-6.3711 14.965-11.062 20.016-4.4297 4.9219-9.3945 8.0039-14.363 10.355-10.02 4.6562-17.062 7.9219-21.984 10.211-9.8164 5.1367-10.391 7.1641-10.523 6.8984 0.12109 0.23828 1.2969-0.76953 11.375-4.0664 5.1016-1.6562 12.457-3.4453 23.102-7.1875 5.2305-1.8828 11.664-4.6445 17.688-10.117 5.8555-5.0273 11.258-12.828 14.977-21.887 1.8594-4.4531 3.4688-9.2656 5.5078-13.188 2.0898-3.8867 4.3672-6.1797 8.3984-6.8398 4.0547-0.88672 9.9375-0.070313 15.66 1.043 2.8086 0.69531 5.6875 1.4023 8.6289 2.1367 2.7344 1.0938 5.3047 2.5312 8.0898 3.7422 10.633 5.7461 17.688 17.734 20.676 32.641 3.2383 14.977 1.7656 32.41-0.23828 52.285-0.91016 9.9492-1.9062 20.652-1.4023 32.242 0.023438 5.7734 0.94922 11.711 1.8359 17.762 1.3672 7.3789 4.5117 13.367 7.2734 18.828 5.8438 10.789 12.348 20.879 18.434 31.391 2.9414 5.2188 5.9766 10.535 8.293 15.816 2.375 5.1016 4.4531 11.004 4.4023 14.27 0.22656 1.2734-0.42187 1.8945-0.74219 2.7344-0.21484 0.10938-0.68359 0.51562-1.2461 1.332-0.67188 0.33594-1.2617 0.64844-1.8008 1.1523-2.4375 1.3203-7.5859 1.5234-14.102 0.74219-6.5742-0.64844-14.172-2.3047-24.098-1.5703-2.5781 0.38281-5.2188 0.80469-7.8594 1.5-2.7109 1.1172-5.5781 1.9805-8.0508 3.6836-5.2578 3.3008-9.0859 7.8945-11.844 12.527-5.3516 9.2891-6.8047 18.602-7.8125 27.348-0.78125 8.6055-0.91016 16.945-1.0547 24.949-0.25391 16.008-1.1875 31.066-6.2773 45l-0.14453 0.39453-0.25391 0.875c-1.4141 5.207-3.9961 11.832-7.3086 19.969-3.0977 8.207-7.6328 17.746-8.1836 31.5 0.011719-0.3125 0.035156-0.79297 0.058593-1.2617-0.28906 3.9961-0.28906 8.293 0.83984 12.863 0.79297 4.3672 3.9102 9.707 4.7148 10.895 0.44531 0.51562 0.86328 1.3203 0.15625 1.8359 0.23828 0.73047-8.5781 5.293-18.816 6.5625-10.309 1.7148-22.043 2.0156-34.523 2.5781-6.2383 0.35938-12.73 0.48047-19.812 1.5469-7.3906 0.92578-12.707 2.1133-19.234 3.168-25.309 4.4531-51.516 9.0469-78.613 13.801-6.707 1.3086-13.5 2.8906-19.199 3.5273-1.4414 0.17969-3.0977 0.52734-4.3438 0.58984-1.043-0.085937-2.0625-0.13281-3.0977-0.13281-0.99609-0.046875-2.1484 0.20312-3.0469 0.035156-0.76953-0.37109-1.5586-0.64844-2.3867-0.86328-3.2773-1.4023-6.6953-4.2344-11.832-9.4922-4.9805-5.0625-12.625-12.348-22.812-16.246 0.35938 0.15625 0.92578 0.40625 1.4883 0.64844-7.9336-3.5898-16.812-7.5859-28.934-7.1289-5.8789 0.28906-12.445 2.0391-17.363 5.0508-5.2695 2.8555-8.9648 6.3594-12.336 9.6016-12.457 13.441-18.539 22.078-29.027 24.973-3.3594 0.875-10.02 1.2852-16.859 0.34766-6.8281-0.67188-14.039-2.2422-21.035-4.1172-3.4805-0.94922-6.793-2.2188-10.188-3.3242-2.5938-1.3203-6.875-2.7969-7.8125-3.8047-1.7031-0.30078-3.5508-3.5625-5.4727-5.4492-2.3164-1.9688-3.0352-4.6914-4.4766-7.043-5.0156-9.5273-2.8789-22.199 3.8633-35.039 3.0859-6.3125 8.0625-12.625 13.223-20.891 2.5547-3.8633 5.0039-8.2422 7.5-12.383 2.2695-4.957 4.9219-9.3125 6.4688-15.277 2.0508-5.5078 2.5078-11.652 3.0352-17.52-0.21484-5.5195-0.22656-11.473-1.2461-16.32l-1.2617-7.6445-1.6328-6.8984-3.4336-13.945c-4.2812-18.914-11.648-37.156-18.199-54.961z" fill="#fff"/>
 <path d="m614.27 528c-1.2461 3.0859-2.4375 7.6445-3.7188 12.926-0.92578 4.7539-1.7031 10.586-2.0391 15.203-0.21484 5.0039-0.25391 9.4805 0.44531 13.176 0.78125 3.7812 2.4609 7.0078 5.6289 8.6055 3.1797 1.5977 6.5508 0.75781 10.043-1.8945 3.625-2.6523 6.9961-7.0664 9.5273-11.953 2.8555-5.1016 4.7539-9.875 6.5156-14.52 1.7539-3.9961 2.9414-7.7383 3.793-9.8164 2.7344-6.0977 5.2422-11.148 9.5742-14.449l3.0234-2.7109c1.0547-0.88672 2.7109-1.3906 4.0078-2.125 2.5781-1.2109 5.9141-3.3008 7.3086-3.4688 3.2539-1.1758 8.6055-0.48047 15.602 1.1523l5.7344 1.3672 3.2773 0.73047c0.9375 0.22656 3.2539 0.57422 4.8008 0.76953 7.0664 0.88672 15.133-0.035157 21.227-3.9727 6.0859-4.1758 9.8984-10.727 12.203-17.762 0.83984-3.0352 1.2461-5.6172 1.7539-8.4609l0.16797-1.043 0.12109-2.1953v-0.34766l-0.011719-1.3906-0.054687-2.9062c-0.45703-3.6953-1.6445-8.5938-2.7461-11.148-0.9375-2.0898-1.9922-4.5117-2.8906-6.2773-1.5586-3.0586-3.1211-6.0977-4.6562-9.1211-2.3281-5.1016-2.5781-8.3867-2.2578-11.27 0.3125-2.6055 3.1797-8.3867 6.3594-13.273 3.1328-5.1016 7.0312-10.32 10.922-15.719 1.9336-2.6406 3.9961-5.5078 6.1797-8.7461 2.0625-3.0469 3.5508-5.7734 5.3164-8.5781 6.4219-10.535 13.223-20.426 18.707-23.461 4.6914-3.2266 13.262-3.0586 23.449-0.76953 5.0742 1.1641 9.8047 2.4375 14.844 4.043 5.2422 1.7383 10.379 3.457 15.457 5.1367 40.309 13.355 75.238 26.051 101.58 41.16 6.5391 3.7422 12.191 7.8359 16.57 11.832 4.4023 4.6445 5.3047 6.0859 5.1602 8.2578-0.13281 1.1406-0.5625 1.8008-1.6094 2.8789-1.2617 1.2617-4.1523 3.5156-6.8516 5.8906-2.7969 2.5078-5.9023 5.6875-8.2695 9.8633-2.4961 4.2617-3.3359 9.2656-3.3828 13.715l-0.011719 1.1641 0.14453 0.49219c0.76953 2.5547 1.7539 5.1133 2.8672 7.4648 1.2227 1.9453 2.5781 3.4805 3.9102 5.1367 2.6641 2.8789 5.375 5.1133 7.8711 6.9375 5.1133 3.7812 9.5742 6.4688 13.453 9.2383 1.6445 1.3203 3.6484 2.6758 4.5859 3.793l1.5586 1.6211 1.5 2.5195c2.0391 3.3125 3.1445 6.8164 4.1289 10.285 2.9883 14.305-0.44531 27.781-2.5781 38.004-5.1602 20.797-7.3203 31.586-7.5703 36.637 0.43359-0.33594 0.86328-0.67188 1.1758-0.89844-1.9922 0.33594-2.6641 1.9805-2.5781 2.7461-0.023437 0.83984 0.070313 1.3672 0.19141 1.7539 0.19141 0.75781 0.30078 0.91016 0.30078 0.91016s0.12109-0.15625 0.34766-0.86328c0.14453-0.58984 0.73047-2.543 1.7383-2.0898l0.64844 0.30078 0.55078-1.2227c2.1016-4.6211 6.6953-13.812 15.035-34.176 3.5625-10.309 9.6016-23.746 7.7539-43.609-0.75781-4.8711-1.9688-10.141-4.3906-15.156l-1.8359-3.8047c-0.88672-1.3555-1.9453-2.7461-2.9883-4.1289-2.125-2.7852-4.2852-4.4141-6.5156-6.5273-4.2734-3.6133-8.8789-6.9102-12.637-10.176-3.7188-3.0586-6.9727-7.2734-6.5625-8.0156 0.035156 0.40625 0.085937 1.0312 0.14453 1.6562 0.42188-2.5938 1.0195-3.7578 5.2305-7.1641 2.1602-1.7031 4.5859-3.1914 8.2578-6.3477 3.8516-3.3242 7.7031-8.2422 8.9648-13.812 3-11.578-4.8828-23.953-10.609-29.82-6.3125-6.4805-13.246-11.773-20.543-16.441-29.258-18.48-64.645-32.461-105.3-47.195-5.0742-1.8242-10.234-3.6836-15.469-5.5664-5.4609-1.8945-11.555-3.7305-17.605-5.2305-6.2656-1.4023-12.793-2.8203-20.629-2.7969-7.6328-0.12109-16.945 1.6211-24.742 6.2656-7.8125 4.5469-13.332 10.586-17.855 16.234-4.4531 5.6992-8.125 11.34-11.746 16.969-1.7148 2.6289-3.4062 5.5781-5.0625 7.9219l-5.3516 7.3203c-3.9258 5.3398-8.1953 10.848-12.324 17.34-4.043 6.6133-8.4492 13.008-10.934 24.266-2.0508 10.969 0.625 22.223 4.3438 30.215l2.7227 5.6172 2.4258 4.7539 1.7148 3.7305c0.26562 0.85156-0.19141-0.37109 0.44531-0.52734 0.22656 0.68359-0.48047 1.7891 0.89844 2.6641l1.75 1.75 0.19141 0.16797c2.5547 1.6914-3.2773-2.0898-2.7109-1.6797l-0.058594 0.33594-0.45703 2.543-0.085937 0.058594c-0.15625-0.011719 0.20312 0.035156-0.34766-0.058594l-8.9531-2.1016c-8.0898-1.7891-19.02-4.4297-31.391-1.0078-6.5039 1.7031-10.008 4.1875-14.762 6.4688-2.2305 1.2617-4.5352 2.1484-6.6836 3.7812l-6.3242 5.3281c-8.6523 7.0898-14.172 17.41-18.047 26.699z" fill="#fff"/>
</svg>
